<?xml version="1.0" encoding="utf-8"?>
<!-- Generator: Adobe Illustrator 22.0.1, SVG Export Plug-In . SVG Version: 6.00 Build 0)  -->
<svg version="1.1" id="Layer_1" xmlns="http://www.w3.org/2000/svg" xmlns:xlink="http://www.w3.org/1999/xlink" x="0px" y="0px"
	 viewBox="0 0 2740.1 2601.8" style="enable-background:new 0 0 2740.1 2601.8;" xml:space="preserve">
<style type="text/css">
	.st0{fill:#231C1A;}
	.st1{fill:#352C28;}
	.st2{fill:#FFB000;}
	.st3{fill:#FFC200;}
	.st4{fill:#A0A0A0;}
	.st5{fill:#FFFFFF;}
</style>
<g>
	<g>
		<path class="st0" d="M2190.3,2384.2c0,0-326.2,200.9-824.1,200.8c-517.3-0.1-824.1-200.8-824.1-200.8v-539.8h1648.2V2384.2z"/>
	</g>
	<g>
		<path d="M1366.7,2601.8c-0.2,0-0.4,0-0.5,0c-119,0-236.8-10.7-350-31.7c-90.7-16.8-178.7-40.3-261.6-69.7
			c-141.6-50.3-218.4-100-221.6-102.1c-4.7-3.1-7.6-8.4-7.6-14v-539.8c0-9.3,7.5-16.8,16.8-16.8h1648.2c9.3,0,16.8,7.5,16.8,16.8
			v539.8c0,5.8-3,11.2-8,14.3c-3.4,2.1-84.7,51.8-228.6,102c-84.3,29.4-172.6,52.9-262.4,69.7
			C1596,2591.1,1481.2,2601.8,1366.7,2601.8z M558.9,2374.8c22.5,13.5,94.6,54.1,208.1,94.3c127.5,45.1,335,99,599.2,99
			c0.2,0,0.3,0,0.5,0c254.6,0,462.8-54,592.7-99.4c115.3-40.3,190.5-80.8,214.1-94.2v-513.4H558.9V2374.8z M2190.3,2384.2
			L2190.3,2384.2L2190.3,2384.2z"/>
	</g>
</g>
<g>
	<g>
		<polygon class="st1" points="1374.3,2199.7 16.8,1689.7 1365.8,1182.9 2723.3,1692.8 		"/>
	</g>
	<g>
		<path d="M1374.3,2214.7c-2.2,0-4.4-0.4-6.5-1.2l-1357.5-510c-6.2-2.3-10.3-7.8-10.3-13.8c0-6,4.1-11.5,10.3-13.8l1349-506.8
			c4.2-1.6,8.8-1.6,13,0l1357.5,510c6.2,2.3,10.3,7.8,10.3,13.8c0,6-4.1,11.5-10.3,13.8l-1349,506.8
			C1378.7,2214.3,1376.5,2214.7,1374.3,2214.7z M60.1,1689.7l1314.1,493.7l1305.7-490.5l-1314.1-493.7L60.1,1689.7z"/>
	</g>
</g>
<g>
	<g>
		<path d="M184.6,2087.2c-9.3,0-16.8-7.5-16.8-16.8v-417.3c0-9.2,7.3-16.6,16.5-16.8l1181.6-21.6c9.3-0.2,16.9,7.2,17.1,16.5
			c0.2,9.3-7.2,16.9-16.5,17.1l-1165.1,21.3v400.8C201.4,2079.7,193.9,2087.2,184.6,2087.2z"/>
	</g>
</g>
<g>
	<g>
		<ellipse class="st2" cx="184.6" cy="2070.4" rx="58.2" ry="51.4"/>
	</g>
	<g>
		<path d="M184.6,2138.6c-41.4,0-75-30.6-75-68.2c0-37.6,33.6-68.2,75-68.2s75,30.6,75,68.2C259.6,2108,226,2138.6,184.6,2138.6z
			 M184.6,2035.8c-22.8,0-41.4,15.5-41.4,34.6c0,19.1,18.6,34.6,41.4,34.6s41.4-15.5,41.4-34.6
			C226,2051.3,207.4,2035.8,184.6,2035.8z"/>
	</g>
</g>
<g>
	<g>
		<path class="st2" d="M253.4,2406.4H115.8V2183c0-35.7,28.9-64.6,64.6-64.6h8.3c35.7,0,64.6,28.9,64.6,64.6V2406.4z"/>
	</g>
	<g>
		<path d="M253.4,2423.2H115.8c-9.3,0-16.8-7.5-16.8-16.8V2183c0-44.9,36.5-81.4,81.4-81.4h8.3c44.9,0,81.4,36.5,81.4,81.4v223.4
			C270.2,2415.7,262.7,2423.2,253.4,2423.2z M132.6,2389.7h104V2183c0-26.4-21.5-47.9-47.9-47.9h-8.3c-26.4,0-47.9,21.5-47.9,47.9
			V2389.7z"/>
	</g>
</g>
<g>
	<path class="st3" d="M1686.1,637.6c0-181.9-148.7-329.1-331.2-326.5c-178.6,2.5-322.6,149.2-321.9,327.9
		c0.3,79.7,29.2,152.7,77,209.2c68.7,81.4,106.1,184.6,106.1,291.2v31c0,75.1,60.9,136,136,136h14.9c75.1,0,136-60.9,136-136v-31
		c0-106.2,36.8-209.6,105.6-290.5C1656.9,791.9,1686.1,718.1,1686.1,637.6z"/>
	<path d="M1367,1326.4h-14.9c-86,0-156-70-156-156v-31c0-102-36-200.9-101.4-278.3c-25.7-30.4-45.8-64.7-59.7-101.8
		c-14.4-38.4-21.8-78.9-22-120.3c-0.2-46.4,8.7-91.4,26.4-134c17.1-41.1,41.7-78.2,73-110.1c64.5-65.7,150.5-102.6,242.2-103.9
		c47.3-0.7,93.2,8,136.6,25.8c41.8,17.2,79.4,42,111.7,73.9c32.3,31.9,57.7,69.1,75.5,110.7c18.4,43.1,27.7,88.8,27.7,136
		c0,82.1-29.2,161.7-82.3,224.2c-65,76.6-100.8,175.2-100.8,277.6v31C1523,1256.4,1453,1326.4,1367,1326.4z M1359.6,331
		c-1.5,0-2.9,0-4.4,0c-167.3,2.3-302.9,140.4-302.2,307.8c0.3,71.8,26,141.6,72.3,196.4c71.5,84.6,110.8,192.6,110.8,304.1v31
		c0,64,52,116,116,116h14.9c64,0,116-52,116-116v-31c0-111.9,39.2-219.7,110.3-303.5c46.9-55.3,72.8-125.7,72.8-198.3
		c0-82.7-32.4-160.2-91.3-218.3C1517,362.3,1440.7,331,1359.6,331z"/>
</g>
<g>
	<path d="M1396.1,1323.3H1323c-10,0-18.4-7.4-19.8-17.2l-68.7-494.6c-1.5-10.9,6.1-21,17.1-22.6c10.9-1.5,21,6.1,22.6,17.1
		l66.3,477.3h39l86.7-484.2c1.9-10.9,12.3-18.1,23.2-16.2c10.9,1.9,18.1,12.3,16.2,23.2l-89.7,500.7
		C1414.1,1316.3,1405.8,1323.3,1396.1,1323.3z"/>
</g>
<g>
	<path d="M1503.1,882.9c-3.8,0-7.7-1.1-11.2-3.4l-56.7-38.2c-12.4,13-34.2,27.7-69.5,27.7c-2.4,0-4.8-0.1-7.3-0.2
		c-21-1.2-34.6-12.6-43.4-21.6c-10.2,8.9-26,15.4-47.9,19.8c-18.8,3.8-35.7,4.7-36.4,4.8c-11,0.6-20.4-7.9-21-18.9
		c-0.6-11,7.9-20.4,18.9-21l0,0c0.1,0,14.5-0.8,30.1-3.9c21.5-4.3,29.5-9.7,30.8-11.5c5.7-9.4,13.1-14.6,22-15.6
		c13.6-1.4,22.4,8,28.9,14.9c7.2,7.7,12.5,12.7,20.3,13.1c39.5,2.2,51.4-22.6,51.5-22.9c2.4-5.4,7-9.5,12.7-11.2
		c5.7-1.7,11.8-0.7,16.8,2.6l72.6,48.9c9.2,6.2,11.6,18.6,5.4,27.8C1515.8,879.8,1509.5,882.9,1503.1,882.9z"/>
</g>
<g>
	<path class="st4" d="M1394.2,1429.3H1335c-60.2,0-108.9-43.5-108.9-97.3v-105.3c0,0,79.8,27.8,138.5,27.8
		c67.5,0,138.5-27.8,138.5-27.8V1332C1503.1,1385.7,1454.3,1429.3,1394.2,1429.3z"/>
	<path d="M1394.2,1449.3H1335c-71.1,0-128.9-52.6-128.9-117.3v-105.3c0-6.5,3.1-12.6,8.4-16.3c5.3-3.8,12.1-4.7,18.2-2.6
		c0.8,0.3,77.3,26.7,132,26.7c63,0,130.6-26.2,131.3-26.5c6.2-2.4,13.1-1.6,18.6,2.1c5.5,3.7,8.7,9.9,8.7,16.5V1332
		C1523.1,1396.7,1465.3,1449.3,1394.2,1449.3z M1246,1254v78c0,42.6,39.9,77.3,88.9,77.3h59.2c49,0,88.9-34.7,88.9-77.3v-77.4
		c-28,8.6-73.7,19.9-118.5,19.9C1324.1,1274.6,1275.5,1262.6,1246,1254z"/>
</g>
<g>
	<line class="st4" x1="1354.1" y1="20" x2="1354.1" y2="173.7"/>
	<path d="M1354.1,193.7c-11,0-20-9-20-20V20c0-11,9-20,20-20s20,9,20,20v153.7C1374.1,184.7,1365.2,193.7,1354.1,193.7z"/>
</g>
<g>
	<line class="st4" x1="1797.4" y1="139.5" x2="1686.1" y2="266.1"/>
	<path d="M1686.1,286.1c-4.7,0-9.4-1.6-13.2-5c-8.3-7.3-9.1-19.9-1.8-28.2l111.3-126.6c7.3-8.3,19.9-9.1,28.2-1.8
		c8.3,7.3,9.1,19.9,1.8,28.2l-111.3,126.6C1697.2,283.8,1691.7,286.1,1686.1,286.1z"/>
</g>
<g>
	<line class="st4" x1="1958.9" y1="535.3" x2="1796.1" y2="535.3"/>
	<path d="M1958.9,555.3h-162.8c-11,0-20-9-20-20s9-20,20-20h162.8c11,0,20,9,20,20S1970,555.3,1958.9,555.3z"/>
</g>
<g>
	<line class="st4" x1="886.1" y1="139.5" x2="997.4" y2="266.1"/>
	<path d="M997.4,286.1c-5.6,0-11.1-2.3-15-6.8L871.1,152.7c-7.3-8.3-6.5-20.9,1.8-28.2c8.3-7.3,20.9-6.5,28.2,1.8l111.3,126.6
		c7.3,8.3,6.5,20.9-1.8,28.2C1006.8,284.5,1002.1,286.1,997.4,286.1z"/>
</g>
<g>
	<line class="st4" x1="724.6" y1="535.3" x2="887.4" y2="535.3"/>
	<path d="M887.4,555.3H724.6c-11,0-20-9-20-20s9-20,20-20h162.8c11,0,20,9,20,20S898.5,555.3,887.4,555.3z"/>
</g>
<g>
	<path class="st5" d="M1109.1,631.2c-8.8,0-16-7.2-16-16c0-60.1,23.4-116.6,65.9-159c42.5-42.5,99-65.9,159-65.9c8.8,0,16,7.2,16,16
		s-7.2,16-16,16c-106.4,0-192.9,86.5-192.9,192.9C1125.1,624,1117.9,631.2,1109.1,631.2z"/>
</g>
<g>
	<path class="st5" d="M976.9,1997.1c-1.9,0-3.9-0.3-5.7-1.1L478,1806.4c-8.2-3.2-12.4-12.4-9.2-20.7c3.2-8.2,12.4-12.4,20.7-9.2
		l493.1,189.7c8.2,3.2,12.4,12.4,9.2,20.7C989.4,1993.2,983.3,1997.1,976.9,1997.1z"/>
</g>
<g>
	<path class="st5" d="M1359.5,2148.6c-1.9,0-3.9-0.4-5.8-1.1l-289.6-113.6c-8.2-3.2-12.3-12.5-9.1-20.7c3.2-8.2,12.5-12.3,20.7-9.1
		l289.6,113.6c8.2,3.2,12.3,12.5,9.1,20.7C1372,2144.7,1365.9,2148.6,1359.5,2148.6z"/>
</g>
</svg>
